<svg xmlns="http://www.w3.org/2000/svg" viewBox="0 0 200 460" width="200" height="460" role="img" aria-label="male-thin front" xmlns:c2pa="http://c2pa.org/manifest"><metadata><c2pa:manifest>AAAWgmp1bWIAAAAeanVtZGMycGEAEQAQgAAAqgA4m3EDYzJwYQAAABZcanVtYgAAAEdqdW1kYzJtYQARABCAAACqADibcQN1cm46YzJwYTpmYzE0MDJmZC00NzQzLTQ0MjctYjM4Mi1iY2VlYWJmZWJhYWYAAAADl2p1bWIAAAApanVtZGMyYXMAEQAQgAAAqgA4m3EDYzJwYS5hc3NlcnRpb25zAAAAALxqdW1iAAAARGp1bWRjYm9yABEAEIAAAKoAOJtxE2MycGEuaW5ncmVkaWVudC52MwAAAAAYYzJzaLBs36/C4WvtiNb8XNp29eQAAABwY2JvcqNpZGM6Zm9ybWF0bWltYWdlL3N2Zyt4bWxqaW5zdGFuY2VJRHgseG1wOmlpZDo0NzlhMzM2Zi01MjVlLTQ0NjItOWViMi03YzdmOTY4MzlhMmNscmVsYXRpb25zaGlwaHBhcmVudE9mAAAB4mp1bWIAAABBanVtZGNib3IAEQAQgAAAqgA4m3ETYzJwYS5hY3Rpb25zLnYyAAAAABhjMnNoQARh4TBiA4ZyMeaQ/yI9YQAAAZljYm9yomdhY3Rpb25zgqJmYWN0aW9ua2MycGEub3BlbmVkanBhcmFtZXRlcnOha2luZ3JlZGllbnRzgaJjdXJseC1zZWxmI2p1bWJmPWMycGEuYXNzZXJ0aW9ucy9jMnBhLmluZ3JlZGllbnQudjNkaGFzaFggENGvW2LsXum3NlJ3uj0Jgo1ZBJ2WdblaMWHxmvGGz+akZmFjdGlvbngdY29tLmFudGhyb3BpYy5jbGF1ZGUucHJvdmlkZWRqcGFyYW1ldGVyc6F4H2NvbS5hbnRocm9waWMub3JpZ2luLWNvbmZpZGVuY2VndW5rbm93bmtkZXNjcmlwdGlvbnhmQ2xhdWRlIHByb3ZpZGVkIHRoaXMgZmlsZSBhdCB0aGUgcmVxdWVzdCBvZiBhIHVzZXIgYW5kIG1heSBoYXZlIGNyZWF0ZWQgb3IgbW9kaWZpZWQgdGhlIGZpbGUgY29udGVudHMubXNvZnR3YXJlQWdlbnShZG5hbWVmQ2xhdWRlcmFsbEFjdGlvbnNJbmNsdWRlZPUAAADIanVtYgAAAEBqdW1kY2JvcgARABCAAACqADibcRNjMnBhLmhhc2guZGF0YQAAAAAYYzJzaFXZ9Y9nPWzWRwUHWbMf5AwAAACAY2JvcqVjYWxnZnNoYTI1NmNwYWRNAAAAAAAAAAAAAAAAAGRoYXNoWCB1z/KD8LICXAvf8DcLIBVJGz+uSBP+BNxbePsRKwoQU2RuYW1lbmp1bWJmIG1hbmlmZXN0amV4Y2x1c2lvbnOBomVzdGFydBi+Zmxlbmd0aBkeBAAAAj5qdW1iAAAAJ2p1bWRjMmNsABEAEIAAAKoAOJtxA2MycGEuY2xhaW0udjIAAAACD2Nib3KlY2FsZ2ZzaGEyNTZpc2lnbmF0dXJleE1zZWxmI2p1bWJmPS9jMnBhL3VybjpjMnBhOmZjMTQwMmZkLTQ3NDMtNDQyNy1iMzgyLWJjZWVhYmZlYmFhZi9jMnBhLnNpZ25hdHVyZWppbnN0YW5jZUlEeCx4bXA6aWlkOjExZjNhZWMyLTMwN2QtNGE3Ni1hNjY1LTU3ZGNkOGQ1ZWNlNHJjcmVhdGVkX2Fzc2VydGlvbnODomN1cmx4LXNlbGYjanVtYmY9YzJwYS5hc3NlcnRpb25zL2MycGEuaW5ncmVkaWVudC52M2RoYXNoWCAQ0a9bYuxe6bc2Une6PQmCjVkEnZZ1uVoxYfGa8YbP5qJjdXJseCpzZWxmI2p1bWJmPWMycGEuYXNzZXJ0aW9ucy9jMnBhLmFjdGlvbnMudjJkaGFzaFggjC/3QFsCbU7PKAU8UHpZlhYYaM5PDxUX2mxsAs6ZNVuiY3VybHgpc2VsZiNqdW1iZj1jMnBhLmFzc2VydGlvbnMvYzJwYS5oYXNoLmRhdGFkaGFzaFgg3l8VcLZEm3hWqvQI0F/DdbzcjjPOfZJlxYKh001kwfR0Y2xhaW1fZ2VuZXJhdG9yX2luZm+jZG5hbWVvQW50aHJvcGljIEZpbGVzZ3ZlcnNpb25lMS4wLjBrc3BlY1ZlcnNpb25lMi40LjAAABA4anVtYgAAAChqdW1kYzJjcwARABCAAACqADibcQNjMnBhLnNpZ25hdHVyZQAAABAIY2JvctKEWQISogEmGCFZAgowggIGMIIBjaADAgECAhRA5aAK7sI50L64g/oGQgU9Z1UTADAKBggqhkjOPQQDAzBJMRcwFQYDVQQKEw5BbnRocm9waWMsIFBCQzEuMCwGA1UEAxMlQW50aHJvcGljIENvbnRlbnQgQ3JlZGVudGlhbHMgUm9vdCBDQTAeFw0yNjA4MDcxODQzNTZaFw0yODA4MDYxOTQzNTZaMEQxFzAVBgNVBAoTDkFudGhyb3BpYywgUEJDMSkwJwYDVQQDEyBBbnRocm9waWMgQ2xhdWRlIENvbnRlbnQgU2lnbmluZzBZMBMGByqGSM49AgEGCCqGSM49AwEHA0IABJh6CmvLUBgFFNU0vUKlOVtE6djd17L5SuwX0LemFisBM3dkd/3cyjxFA3Qo5S46fX0/ihY0VZ7mfb9KF703t5OjWDBWMA4GA1UdDwEB/wQEAwIHgDAVBgNVHSUEDjAMBgorBgEEAYPoXgIBMAwGA1UdEwEB/wQCMAAwHwYDVR0jBBgwFoAUzlHiBIFOZFsj+OPEz5o+nMHXXMIwCgYIKoZIzj0EAwMDZwAwZAIwMXMdFJ4BetLLVY7ORuE9noqbbAZOZn/aArXyTwFAZfKrPzxF2vPoJNf1+UCdg1XGAjBwX1zd9WGqYkqmL5SFqw1QySjr1zJfpJM9+1rdDwSPLMOPOjKuiXjoU/pUUeG9RwmhY3BhZFkNngAAAAAAAAAAAAAAAAAAAAAAAAAAAAAAAAAAAAAAAAAAAAAAAAAAAAAAAAAAAAAAAAAAAAAAAAAAAAAAAAAAAAAAAAAAAAAAAAAAAAAAAAAAAAAAAAAAAAAAAAAAAAAAAAAAAAAAAAAAAAAAAAAAAAAAAAAAAAAAAAAAAAAAAAAAAAAAAAAAAAAAAAAAAAAAAAAAAAAAAAAAAAAAAAAAAAAAAAAAAAAAAAAAAAAAAAAAAAAAAAAAAAAAAAAAAAAAAAAAAAAAAAAAAAAAAAAAAAAAAAAAAAAAAAAAAAAAAAAAAAAAAAAAAAAAAAAAAAAAAAAAAAAAAAAAAAAAAAAAAAAAAAAAAAAAAAAAAAAAAAAAAAAAAAAAAAAAAAAAAAAAAAAAAAAAAAAAAAAAAAAAAAAAAAAAAAAAAAAAAAAAAAAAAAAAAAAAAAAAAAAAAAAAAAAAAAAAAAAAAAAAAAAAAAAAAAAAAAAAAAAAAAAAAAAAAAAAAAAAAAAAAAAAAAAAAAAAAAAAAAAAAAAAAAAAAAAAAAAAAAAAAAAAAAAAAAAAAAAAAAAAAAAAAAAAAAAAAAAAAAAAAAAAAAAAAAAAAAAAAAAAAAAAAAAAAAAAAAAAAAAAAAAAAAAAAAAAAAAAAAAAAAAAAAAAAAAAAAAAAAAAAAAAAAAAAAAAAAAAAAAAAAAAAAAAAAAAAAAAAAAAAAAAAAAAAAAAAAAAAAAAAAAAAAAAAAAAAAAAAAAAAAAAAAAAAAAAAAAAAAAAAAAAAAAAAAAAAAAAAAAAAAAAAAAAAAAAAAAAAAAAAAAAAAAAAAAAAAAAAAAAAAAAAAAAAAAAAAAAAAAAAAAAAAAAAAAAAAAAAAAAAAAAAAAAAAAAAAAAAAAAAAAAAAAAAAAAAAAAAAAAAAAAAAAAAAAAAAAAAAAAAAAAAAAAAAAAAAAAAAAAAAAAAAAAAAAAAAAAAAAAAAAAAAAAAAAAAAAAAAAAAAAAAAAAAAAAAAAAAAAAAAAAAAAAAAAAAAAAAAAAAAAAAAAAAAAAAAAAAAAAAAAAAAAAAAAAAAAAAAAAAAAAAAAAAAAAAAAAAAAAAAAAAAAAAAAAAAAAAAAAAAAAAAAAAAAAAAAAAAAAAAAAAAAAAAAAAAAAAAAAAAAAAAAAAAAAAAAAAAAAAAAAAAAAAAAAAAAAAAAAAAAAAAAAAAAAAAAAAAAAAAAAAAAAAAAAAAAAAAAAAAAAAAAAAAAAAAAAAAAAAAAAAAAAAAAAAAAAAAAAAAAAAAAAAAAAAAAAAAAAAAAAAAAAAAAAAAAAAAAAAAAAAAAAAAAAAAAAAAAAAAAAAAAAAAAAAAAAAAAAAAAAAAAAAAAAAAAAAAAAAAAAAAAAAAAAAAAAAAAAAAAAAAAAAAAAAAAAAAAAAAAAAAAAAAAAAAAAAAAAAAAAAAAAAAAAAAAAAAAAAAAAAAAAAAAAAAAAAAAAAAAAAAAAAAAAAAAAAAAAAAAAAAAAAAAAAAAAAAAAAAAAAAAAAAAAAAAAAAAAAAAAAAAAAAAAAAAAAAAAAAAAAAAAAAAAAAAAAAAAAAAAAAAAAAAAAAAAAAAAAAAAAAAAAAAAAAAAAAAAAAAAAAAAAAAAAAAAAAAAAAAAAAAAAAAAAAAAAAAAAAAAAAAAAAAAAAAAAAAAAAAAAAAAAAAAAAAAAAAAAAAAAAAAAAAAAAAAAAAAAAAAAAAAAAAAAAAAAAAAAAAAAAAAAAAAAAAAAAAAAAAAAAAAAAAAAAAAAAAAAAAAAAAAAAAAAAAAAAAAAAAAAAAAAAAAAAAAAAAAAAAAAAAAAAAAAAAAAAAAAAAAAAAAAAAAAAAAAAAAAAAAAAAAAAAAAAAAAAAAAAAAAAAAAAAAAAAAAAAAAAAAAAAAAAAAAAAAAAAAAAAAAAAAAAAAAAAAAAAAAAAAAAAAAAAAAAAAAAAAAAAAAAAAAAAAAAAAAAAAAAAAAAAAAAAAAAAAAAAAAAAAAAAAAAAAAAAAAAAAAAAAAAAAAAAAAAAAAAAAAAAAAAAAAAAAAAAAAAAAAAAAAAAAAAAAAAAAAAAAAAAAAAAAAAAAAAAAAAAAAAAAAAAAAAAAAAAAAAAAAAAAAAAAAAAAAAAAAAAAAAAAAAAAAAAAAAAAAAAAAAAAAAAAAAAAAAAAAAAAAAAAAAAAAAAAAAAAAAAAAAAAAAAAAAAAAAAAAAAAAAAAAAAAAAAAAAAAAAAAAAAAAAAAAAAAAAAAAAAAAAAAAAAAAAAAAAAAAAAAAAAAAAAAAAAAAAAAAAAAAAAAAAAAAAAAAAAAAAAAAAAAAAAAAAAAAAAAAAAAAAAAAAAAAAAAAAAAAAAAAAAAAAAAAAAAAAAAAAAAAAAAAAAAAAAAAAAAAAAAAAAAAAAAAAAAAAAAAAAAAAAAAAAAAAAAAAAAAAAAAAAAAAAAAAAAAAAAAAAAAAAAAAAAAAAAAAAAAAAAAAAAAAAAAAAAAAAAAAAAAAAAAAAAAAAAAAAAAAAAAAAAAAAAAAAAAAAAAAAAAAAAAAAAAAAAAAAAAAAAAAAAAAAAAAAAAAAAAAAAAAAAAAAAAAAAAAAAAAAAAAAAAAAAAAAAAAAAAAAAAAAAAAAAAAAAAAAAAAAAAAAAAAAAAAAAAAAAAAAAAAAAAAAAAAAAAAAAAAAAAAAAAAAAAAAAAAAAAAAAAAAAAAAAAAAAAAAAAAAAAAAAAAAAAAAAAAAAAAAAAAAAAAAAAAAAAAAAAAAAAAAAAAAAAAAAAAAAAAAAAAAAAAAAAAAAAAAAAAAAAAAAAAAAAAAAAAAAAAAAAAAAAAAAAAAAAAAAAAAAAAAAAAAAAAAAAAAAAAAAAAAAAAAAAAAAAAAAAAAAAAAAAAAAAAAAAAAAAAAAAAAAAAAAAAAAAAAAAAAAAAAAAAAAAAAAAAAAAAAAAAAAAAAAAAAAAAAAAAAAAAAAAAAAAAAAAAAAAAAAAAAAAAAAAAAAAAAAAAAAAAAAAAAAAAAAAAAAAAAAAAAAAAAAAAAAAAAAAAAAAAAAAAAAAAAAAAAAAAAAAAAAAAAAAAAAAAAAAAAAAAAAAAAAAAAAAAAAAAAAAAAAAAAAAAAAAAAAAAAAAAAAAAAAAAAAAAAAAAAAAAAAAAAAAAAAAAAAAAAAAAAAAAAAAAAAAAAAAAAAAAAAAAAAAAAAAAAAAAAAAAAAAAAAAAAAAAAAAAAAAAAAAAAAAAAAAAAAAAAAAAAAAAAAAAAAAAAAAAAAAAAAAAAAAAAAAAAAAAAAAAAAAAAAAAAAAAAAAAAAAAAAAAAAAAAAAAAAAAAAAAAAAAAAAAAAAAAAAAAAAAAAAAAAAAAAAAAAAAAAAAAAAAAAAAAAAAAAAAAAAAAAAAAAAAAAAAAAAAAAAAAAAAAAAAAAAAAAAAAAAAAAAAAAAAAAAAAAAAAAAAAAAAAAAAAAAAAAAAAAAAAAAAAAAAAAAAAAAAAAAAAAAAAAAAAAAAAAAAAAAAAAAAAAAAAAAAAAAAAAAAAAAAAAAAAAAAAAAAAAAAAAAAAAAAAAAAAAAAAAAAAAAAAAAAAAAAAAAAAAAAAAAAAAAAAAAAAAAAAAAAAAAAAAAAAAAAAAAAAAAAAAAAAAAAAAAAAAAAAAAAAAAAAAAAAAAAAAAAAAAAAAAAAAAAAAAAAAAAAAAAAAAAAAAAAAAAAAAAAAAAAAAAAAAAAAAAAAAAAAAAAAAAAAAAAAAAAAAAAAAAAAAAAAAAAAAAAAAAAAAAAAAAAAAAAAAAAAAAAAAAAAAAAAAAAAAAAAAAAAAAAAAAAAAAAAAAAAAAAAAAAAAAAAAAAAAAAAAAAAAAAAAAAAAAAAAAAAAAAAAAAAAAAAAAAAAAAAAAAAAAAAAAAAAAAAAAAAAAAAAAAAAAAAAAAAAAAAAAAAAAAAAAAAAAAAAAAAAAAAAAAAAAAAAAAAAAAAAAAAAAAAAAAAAAAAAAAAAAAAAAAAAAAAAAAAAAAAAAAAAAAAAAAAAAAAAAAAAAAAAAAAAAAAAAAAAAAAAAAAAAAAAAAAAAAAAAAAAAAAAAAAAAAAAAAAAAAAAAAAAAAAAAAAAAAAAAAAAAAAAAAAAAAAAAAAAAAAAAAAAAAAAAAAAAAAAAAAAAAAAAAAAAAAAAAAAAAAAAAAAAAAAAAAAAAAAAAAAAAAAAAAAAAAAAAAAAAAAAAAAAAAAAAAAAAAAAAAAAAAAAAAAAAAAAAAAAAAAAAAAAAAAAAAAAAAAAAAAAAAAAAAAAAAAAAAAAAAAAAAAAAAAAAAAAAAAAAAAAAAAAAAAAAAAAAAAAAAAAAAAAAAAAAAAAAAAAAAAAAAAAAAAAAAAAAAAAAAAAAAAAAAAAAAAAAAAAAAAAAAAAAAAAAAAAAAAAAAAAAAAAAAAAAAAAAAAAAAAAAAAAAAAAAAAAAAAAAAAAAAAAAAAAAAAAAAAAAAAAAAAAAAAAAAAAAAAAAAAAAAAAAAAAAAAAAAAAAAAAAAAAAAAAAAAAAAAAAAAAAAAAAAAAAAAAAAAAAAAAAAAAAAAAAAAAAAAAAAAAAAAAAAAAAAAAAAAAAAAAAAAAAAAAAAAAAAAAAAAAAAAAAAAAAAAAAAAAAAAAAAAAAAAAAAAAAAAAAAAAAAAAAAAAAAAAAAAAAAAAAAAAAAAPZYQD9YmSJkdeS6qC0vQzXg5UUBfrRnLGMq1VOVO5wh/MlLnKIvvLFqeStkQBGRf30LkUhZoEXQlIrjQN6fi0R6Nws=</c2pa:manifest></metadata>
<defs>
  <linearGradient id="skin" x1="0" y1="0" x2="0" y2="1"><stop offset="0" stop-color="#E9EEF4"/><stop offset="1" stop-color="#D5DDE7"/></linearGradient>
  <style>.r{fill:url(#skin);stroke:#FFFFFF;stroke-width:1.6;stroke-linejoin:round}</style>
</defs>
<g id="body">
<ellipse id="head" class="r" cx="100" cy="32" rx="18.4" ry="23"/>
<path id="neck" class="r" d="M 92.3 52.0 Q 100.0 58.0 107.7 52.0 L 108.5 70.0 Q 100.0 76.0 91.5 70.0 Z"/>
<path id="shoulder_right" class="r" d="M 75.6 74.0 Q 61.9 74.0 56.8 92.0 Q 54.2 106.0 55.9 120.0 L 68.7 118.0 Q 70.4 100.0 79.0 88.0 Z"/>
<path id="shoulder_left" class="r" transform="matrix(-1 0 0 1 200 0)" d="M 75.6 74.0 Q 61.9 74.0 56.8 92.0 Q 54.2 106.0 55.9 120.0 L 68.7 118.0 Q 70.4 100.0 79.0 88.0 Z"/>
<path id="chest_right" class="r" d="M 80.5 82.0 Q 90.7 76.0 99.1 82.0 L 99.1 116.0 Q 88.8 122.0 76.8 114.0 Q 74.9 96.0 80.5 82.0 Z"/>
<path id="chest_left" class="r" transform="matrix(-1 0 0 1 200 0)" d="M 80.5 82.0 Q 90.7 76.0 99.1 82.0 L 99.1 116.0 Q 88.8 122.0 76.8 114.0 Q 74.9 96.0 80.5 82.0 Z"/>
<path id="abs_right" class="r" d="M 84.9 120.0 Q 91.6 124.0 99.2 120.0 L 99.2 190.0 Q 91.6 196.0 86.6 190.0 Q 83.2 156.0 84.9 120.0 Z"/>
<path id="abs_left" class="r" transform="matrix(-1 0 0 1 200 0)" d="M 84.9 120.0 Q 91.6 124.0 99.2 120.0 L 99.2 190.0 Q 91.6 196.0 86.6 190.0 Q 83.2 156.0 84.9 120.0 Z"/>
<path id="obliques_right" class="r" d="M 78.2 118.0 L 83.2 122.0 Q 81.5 156.0 85.7 190.0 Q 80.7 188.0 79.0 184.0 Q 75.6 150.0 78.2 118.0 Z"/>
<path id="obliques_left" class="r" transform="matrix(-1 0 0 1 200 0)" d="M 78.2 118.0 L 83.2 122.0 Q 81.5 156.0 85.7 190.0 Q 80.7 188.0 79.0 184.0 Q 75.6 150.0 78.2 118.0 Z"/>
<path id="biceps_right" class="r" d="M 58.9 122.0 L 70.6 120.0 Q 70.6 140.0 67.5 160.0 L 56.5 160.0 Q 56.5 140.0 58.9 122.0 Z"/>
<path id="biceps_left" class="r" transform="matrix(-1 0 0 1 200 0)" d="M 58.9 122.0 L 70.6 120.0 Q 70.6 140.0 67.5 160.0 L 56.5 160.0 Q 56.5 140.0 58.9 122.0 Z"/>
<path id="forearm_right" class="r" d="M 57.7 163.0 L 68.6 163.0 Q 66.2 190.0 63.9 214.0 L 53.8 214.0 Q 54.5 190.0 57.7 163.0 Z"/>
<path id="forearm_left" class="r" transform="matrix(-1 0 0 1 200 0)" d="M 57.7 163.0 L 68.6 163.0 Q 66.2 190.0 63.9 214.0 L 53.8 214.0 Q 54.5 190.0 57.7 163.0 Z"/>
<path id="hand_right" class="r" d="M 55.7 217.0 L 66.6 217.0 Q 67.4 236.0 65.0 246.0 Q 61.1 250.0 57.2 246.0 Q 54.1 232.0 55.7 217.0 Z"/>
<path id="hand_left" class="r" transform="matrix(-1 0 0 1 200 0)" d="M 55.7 217.0 L 66.6 217.0 Q 67.4 236.0 65.0 246.0 Q 61.1 250.0 57.2 246.0 Q 54.1 232.0 55.7 217.0 Z"/>
<path id="hips_right" class="r" d="M 78.9 193.0 Q 89.4 198.0 99.1 194.0 L 99.1 222.0 Q 89.4 232.0 79.8 228.0 Q 76.2 210.0 78.9 193.0 Z"/>
<path id="hips_left" class="r" transform="matrix(-1 0 0 1 200 0)" d="M 78.9 193.0 Q 89.4 198.0 99.1 194.0 L 99.1 222.0 Q 89.4 232.0 79.8 228.0 Q 76.2 210.0 78.9 193.0 Z"/>
<path id="quads_right" class="r" d="M 81.0 233.0 Q 91.4 238.0 97.8 231.0 L 96.2 300.0 Q 95.4 318.0 93.0 330.0 L 81.8 330.0 Q 77.0 300.0 78.6 262.0 Q 78.6 246.0 81.0 233.0 Z"/>
<path id="quads_left" class="r" transform="matrix(-1 0 0 1 200 0)" d="M 81.0 233.0 Q 91.4 238.0 97.8 231.0 L 96.2 300.0 Q 95.4 318.0 93.0 330.0 L 81.8 330.0 Q 77.0 300.0 78.6 262.0 Q 78.6 246.0 81.0 233.0 Z"/>
<path id="knee_right" class="r" d="M 81.8 333.0 L 93.8 333.0 Q 95.4 346.0 93.8 356.0 L 82.6 356.0 Q 80.2 346.0 81.8 333.0 Z"/>
<path id="knee_left" class="r" transform="matrix(-1 0 0 1 200 0)" d="M 81.8 333.0 L 93.8 333.0 Q 95.4 346.0 93.8 356.0 L 82.6 356.0 Q 80.2 346.0 81.8 333.0 Z"/>
<path id="shin_right" class="r" d="M 82.6 359.0 L 93.0 359.0 Q 94.6 390.0 91.4 420.0 L 85.0 420.0 Q 81.0 390.0 82.6 359.0 Z"/>
<path id="shin_left" class="r" transform="matrix(-1 0 0 1 200 0)" d="M 82.6 359.0 L 93.0 359.0 Q 94.6 390.0 91.4 420.0 L 85.0 420.0 Q 81.0 390.0 82.6 359.0 Z"/>
<path id="foot_right" class="r" d="M 83.4 424.0 L 92.2 424.0 Q 95.4 436.0 96.2 446.0 Q 89.8 451.0 80.2 448.0 Q 80.2 436.0 83.4 424.0 Z"/>
<path id="foot_left" class="r" transform="matrix(-1 0 0 1 200 0)" d="M 83.4 424.0 L 92.2 424.0 Q 95.4 436.0 96.2 446.0 Q 89.8 451.0 80.2 448.0 Q 80.2 436.0 83.4 424.0 Z"/>
</g></svg>