<svg xmlns="http://www.w3.org/2000/svg" viewBox="0 0 200 460" width="200" height="460" role="img" aria-label="male-medium back" xmlns:c2pa="http://c2pa.org/manifest"><metadata><c2pa:manifest>AAAWgmp1bWIAAAAeanVtZGMycGEAEQAQgAAAqgA4m3EDYzJwYQAAABZcanVtYgAAAEdqdW1kYzJtYQARABCAAACqADibcQN1cm46YzJwYTpmNGQzNzIyMS01MDBjLTRjNmMtODY2My02MTZiY2QyZmZlOGEAAAADl2p1bWIAAAApanVtZGMyYXMAEQAQgAAAqgA4m3EDYzJwYS5hc3NlcnRpb25zAAAAALxqdW1iAAAARGp1bWRjYm9yABEAEIAAAKoAOJtxE2MycGEuaW5ncmVkaWVudC52MwAAAAAYYzJzaFWWsvNzD/Dcb4SowrK8mYkAAABwY2JvcqNpZGM6Zm9ybWF0bWltYWdlL3N2Zyt4bWxqaW5zdGFuY2VJRHgseG1wOmlpZDpkN2ZiMzg1YS01MTJlLTQ2YTgtOTg0My00NWMwYzk1MTRhOTdscmVsYXRpb25zaGlwaHBhcmVudE9mAAAB4mp1bWIAAABBanVtZGNib3IAEQAQgAAAqgA4m3ETYzJwYS5hY3Rpb25zLnYyAAAAABhjMnNoQ3lZB6TDYyPu8MFccZHnHAAAAZljYm9yomdhY3Rpb25zgqJmYWN0aW9ua2MycGEub3BlbmVkanBhcmFtZXRlcnOha2luZ3JlZGllbnRzgaJjdXJseC1zZWxmI2p1bWJmPWMycGEuYXNzZXJ0aW9ucy9jMnBhLmluZ3JlZGllbnQudjNkaGFzaFggRE+x3WLNhJoQv1qLJkUjKxNjaLkkaajTILM5oII0reKkZmFjdGlvbngdY29tLmFudGhyb3BpYy5jbGF1ZGUucHJvdmlkZWRqcGFyYW1ldGVyc6F4H2NvbS5hbnRocm9waWMub3JpZ2luLWNvbmZpZGVuY2VndW5rbm93bmtkZXNjcmlwdGlvbnhmQ2xhdWRlIHByb3ZpZGVkIHRoaXMgZmlsZSBhdCB0aGUgcmVxdWVzdCBvZiBhIHVzZXIgYW5kIG1heSBoYXZlIGNyZWF0ZWQgb3IgbW9kaWZpZWQgdGhlIGZpbGUgY29udGVudHMubXNvZnR3YXJlQWdlbnShZG5hbWVmQ2xhdWRlcmFsbEFjdGlvbnNJbmNsdWRlZPUAAADIanVtYgAAAEBqdW1kY2JvcgARABCAAACqADibcRNjMnBhLmhhc2guZGF0YQAAAAAYYzJzaGYz+ZK/9rK2KkMdrL6oOKsAAACAY2JvcqVjYWxnZnNoYTI1NmNwYWRNAAAAAAAAAAAAAAAAAGRoYXNoWCDAjL3x36XyMzK02U2GO06ubJYvnKxTk5npSyVj0lGo9WRuYW1lbmp1bWJmIG1hbmlmZXN0amV4Y2x1c2lvbnOBomVzdGFydBi/Zmxlbmd0aBkeBAAAAj5qdW1iAAAAJ2p1bWRjMmNsABEAEIAAAKoAOJtxA2MycGEuY2xhaW0udjIAAAACD2Nib3KlY2FsZ2ZzaGEyNTZpc2lnbmF0dXJleE1zZWxmI2p1bWJmPS9jMnBhL3VybjpjMnBhOmY0ZDM3MjIxLTUwMGMtNGM2Yy04NjYzLTYxNmJjZDJmZmU4YS9jMnBhLnNpZ25hdHVyZWppbnN0YW5jZUlEeCx4bXA6aWlkOjI5MjJjZThkLTFmMGUtNDZhNS04NGI1LWZiMjE1YjZjZjIzM3JjcmVhdGVkX2Fzc2VydGlvbnODomN1cmx4LXNlbGYjanVtYmY9YzJwYS5hc3NlcnRpb25zL2MycGEuaW5ncmVkaWVudC52M2RoYXNoWCBET7HdYs2EmhC/WosmRSMrE2NouSRpqNMgszmggjSt4qJjdXJseCpzZWxmI2p1bWJmPWMycGEuYXNzZXJ0aW9ucy9jMnBhLmFjdGlvbnMudjJkaGFzaFggvaOZ4fAmkVd5oiVupfDH0Fm2FK/Hfjs1bWVwDAM9NDqiY3VybHgpc2VsZiNqdW1iZj1jMnBhLmFzc2VydGlvbnMvYzJwYS5oYXNoLmRhdGFkaGFzaFggtY8Hgx3VwSUXt57F23bWe1Q0CUJ2CgWxccO9ysHgiDB0Y2xhaW1fZ2VuZXJhdG9yX2luZm+jZG5hbWVvQW50aHJvcGljIEZpbGVzZ3ZlcnNpb25lMS4wLjBrc3BlY1ZlcnNpb25lMi40LjAAABA4anVtYgAAAChqdW1kYzJjcwARABCAAACqADibcQNjMnBhLnNpZ25hdHVyZQAAABAIY2JvctKEWQISogEmGCFZAgowggIGMIIBjaADAgECAhRA5aAK7sI50L64g/oGQgU9Z1UTADAKBggqhkjOPQQDAzBJMRcwFQYDVQQKEw5BbnRocm9waWMsIFBCQzEuMCwGA1UEAxMlQW50aHJvcGljIENvbnRlbnQgQ3JlZGVudGlhbHMgUm9vdCBDQTAeFw0yNjA4MDcxODQzNTZaFw0yODA4MDYxOTQzNTZaMEQxFzAVBgNVBAoTDkFudGhyb3BpYywgUEJDMSkwJwYDVQQDEyBBbnRocm9waWMgQ2xhdWRlIENvbnRlbnQgU2lnbmluZzBZMBMGByqGSM49AgEGCCqGSM49AwEHA0IABJh6CmvLUBgFFNU0vUKlOVtE6djd17L5SuwX0LemFisBM3dkd/3cyjxFA3Qo5S46fX0/ihY0VZ7mfb9KF703t5OjWDBWMA4GA1UdDwEB/wQEAwIHgDAVBgNVHSUEDjAMBgorBgEEAYPoXgIBMAwGA1UdEwEB/wQCMAAwHwYDVR0jBBgwFoAUzlHiBIFOZFsj+OPEz5o+nMHXXMIwCgYIKoZIzj0EAwMDZwAwZAIwMXMdFJ4BetLLVY7ORuE9noqbbAZOZn/aArXyTwFAZfKrPzxF2vPoJNf1+UCdg1XGAjBwX1zd9WGqYkqmL5SFqw1QySjr1zJfpJM9+1rdDwSPLMOPOjKuiXjoU/pUUeG9RwmhY3BhZFkNngAAAAAAAAAAAAAAAAAAAAAAAAAAAAAAAAAAAAAAAAAAAAAAAAAAAAAAAAAAAAAAAAAAAAAAAAAAAAAAAAAAAAAAAAAAAAAAAAAAAAAAAAAAAAAAAAAAAAAAAAAAAAAAAAAAAAAAAAAAAAAAAAAAAAAAAAAAAAAAAAAAAAAAAAAAAAAAAAAAAAAAAAAAAAAAAAAAAAAAAAAAAAAAAAAAAAAAAAAAAAAAAAAAAAAAAAAAAAAAAAAAAAAAAAAAAAAAAAAAAAAAAAAAAAAAAAAAAAAAAAAAAAAAAAAAAAAAAAAAAAAAAAAAAAAAAAAAAAAAAAAAAAAAAAAAAAAAAAAAAAAAAAAAAAAAAAAAAAAAAAAAAAAAAAAAAAAAAAAAAAAAAAAAAAAAAAAAAAAAAAAAAAAAAAAAAAAAAAAAAAAAAAAAAAAAAAAAAAAAAAAAAAAAAAAAAAAAAAAAAAAAAAAAAAAAAAAAAAAAAAAAAAAAAAAAAAAAAAAAAAAAAAAAAAAAAAAAAAAAAAAAAAAAAAAAAAAAAAAAAAAAAAAAAAAAAAAAAAAAAAAAAAAAAAAAAAAAAAAAAAAAAAAAAAAAAAAAAAAAAAAAAAAAAAAAAAAAAAAAAAAAAAAAAAAAAAAAAAAAAAAAAAAAAAAAAAAAAAAAAAAAAAAAAAAAAAAAAAAAAAAAAAAAAAAAAAAAAAAAAAAAAAAAAAAAAAAAAAAAAAAAAAAAAAAAAAAAAAAAAAAAAAAAAAAAAAAAAAAAAAAAAAAAAAAAAAAAAAAAAAAAAAAAAAAAAAAAAAAAAAAAAAAAAAAAAAAAAAAAAAAAAAAAAAAAAAAAAAAAAAAAAAAAAAAAAAAAAAAAAAAAAAAAAAAAAAAAAAAAAAAAAAAAAAAAAAAAAAAAAAAAAAAAAAAAAAAAAAAAAAAAAAAAAAAAAAAAAAAAAAAAAAAAAAAAAAAAAAAAAAAAAAAAAAAAAAAAAAAAAAAAAAAAAAAAAAAAAAAAAAAAAAAAAAAAAAAAAAAAAAAAAAAAAAAAAAAAAAAAAAAAAAAAAAAAAAAAAAAAAAAAAAAAAAAAAAAAAAAAAAAAAAAAAAAAAAAAAAAAAAAAAAAAAAAAAAAAAAAAAAAAAAAAAAAAAAAAAAAAAAAAAAAAAAAAAAAAAAAAAAAAAAAAAAAAAAAAAAAAAAAAAAAAAAAAAAAAAAAAAAAAAAAAAAAAAAAAAAAAAAAAAAAAAAAAAAAAAAAAAAAAAAAAAAAAAAAAAAAAAAAAAAAAAAAAAAAAAAAAAAAAAAAAAAAAAAAAAAAAAAAAAAAAAAAAAAAAAAAAAAAAAAAAAAAAAAAAAAAAAAAAAAAAAAAAAAAAAAAAAAAAAAAAAAAAAAAAAAAAAAAAAAAAAAAAAAAAAAAAAAAAAAAAAAAAAAAAAAAAAAAAAAAAAAAAAAAAAAAAAAAAAAAAAAAAAAAAAAAAAAAAAAAAAAAAAAAAAAAAAAAAAAAAAAAAAAAAAAAAAAAAAAAAAAAAAAAAAAAAAAAAAAAAAAAAAAAAAAAAAAAAAAAAAAAAAAAAAAAAAAAAAAAAAAAAAAAAAAAAAAAAAAAAAAAAAAAAAAAAAAAAAAAAAAAAAAAAAAAAAAAAAAAAAAAAAAAAAAAAAAAAAAAAAAAAAAAAAAAAAAAAAAAAAAAAAAAAAAAAAAAAAAAAAAAAAAAAAAAAAAAAAAAAAAAAAAAAAAAAAAAAAAAAAAAAAAAAAAAAAAAAAAAAAAAAAAAAAAAAAAAAAAAAAAAAAAAAAAAAAAAAAAAAAAAAAAAAAAAAAAAAAAAAAAAAAAAAAAAAAAAAAAAAAAAAAAAAAAAAAAAAAAAAAAAAAAAAAAAAAAAAAAAAAAAAAAAAAAAAAAAAAAAAAAAAAAAAAAAAAAAAAAAAAAAAAAAAAAAAAAAAAAAAAAAAAAAAAAAAAAAAAAAAAAAAAAAAAAAAAAAAAAAAAAAAAAAAAAAAAAAAAAAAAAAAAAAAAAAAAAAAAAAAAAAAAAAAAAAAAAAAAAAAAAAAAAAAAAAAAAAAAAAAAAAAAAAAAAAAAAAAAAAAAAAAAAAAAAAAAAAAAAAAAAAAAAAAAAAAAAAAAAAAAAAAAAAAAAAAAAAAAAAAAAAAAAAAAAAAAAAAAAAAAAAAAAAAAAAAAAAAAAAAAAAAAAAAAAAAAAAAAAAAAAAAAAAAAAAAAAAAAAAAAAAAAAAAAAAAAAAAAAAAAAAAAAAAAAAAAAAAAAAAAAAAAAAAAAAAAAAAAAAAAAAAAAAAAAAAAAAAAAAAAAAAAAAAAAAAAAAAAAAAAAAAAAAAAAAAAAAAAAAAAAAAAAAAAAAAAAAAAAAAAAAAAAAAAAAAAAAAAAAAAAAAAAAAAAAAAAAAAAAAAAAAAAAAAAAAAAAAAAAAAAAAAAAAAAAAAAAAAAAAAAAAAAAAAAAAAAAAAAAAAAAAAAAAAAAAAAAAAAAAAAAAAAAAAAAAAAAAAAAAAAAAAAAAAAAAAAAAAAAAAAAAAAAAAAAAAAAAAAAAAAAAAAAAAAAAAAAAAAAAAAAAAAAAAAAAAAAAAAAAAAAAAAAAAAAAAAAAAAAAAAAAAAAAAAAAAAAAAAAAAAAAAAAAAAAAAAAAAAAAAAAAAAAAAAAAAAAAAAAAAAAAAAAAAAAAAAAAAAAAAAAAAAAAAAAAAAAAAAAAAAAAAAAAAAAAAAAAAAAAAAAAAAAAAAAAAAAAAAAAAAAAAAAAAAAAAAAAAAAAAAAAAAAAAAAAAAAAAAAAAAAAAAAAAAAAAAAAAAAAAAAAAAAAAAAAAAAAAAAAAAAAAAAAAAAAAAAAAAAAAAAAAAAAAAAAAAAAAAAAAAAAAAAAAAAAAAAAAAAAAAAAAAAAAAAAAAAAAAAAAAAAAAAAAAAAAAAAAAAAAAAAAAAAAAAAAAAAAAAAAAAAAAAAAAAAAAAAAAAAAAAAAAAAAAAAAAAAAAAAAAAAAAAAAAAAAAAAAAAAAAAAAAAAAAAAAAAAAAAAAAAAAAAAAAAAAAAAAAAAAAAAAAAAAAAAAAAAAAAAAAAAAAAAAAAAAAAAAAAAAAAAAAAAAAAAAAAAAAAAAAAAAAAAAAAAAAAAAAAAAAAAAAAAAAAAAAAAAAAAAAAAAAAAAAAAAAAAAAAAAAAAAAAAAAAAAAAAAAAAAAAAAAAAAAAAAAAAAAAAAAAAAAAAAAAAAAAAAAAAAAAAAAAAAAAAAAAAAAAAAAAAAAAAAAAAAAAAAAAAAAAAAAAAAAAAAAAAAAAAAAAAAAAAAAAAAAAAAAAAAAAAAAAAAAAAAAAAAAAAAAAAAAAAAAAAAAAAAAAAAAAAAAAAAAAAAAAAAAAAAAAAAAAAAAAAAAAAAAAAAAAAAAAAAAAAAAAAAAAAAAAAAAAAAAAAAAAAAAAAAAAAAAAAAAAAAAAAAAAAAAAAAAAAAAAAAAAAAAAAAAAAAAAAAAAAAAAAAAAAAAAAAAAAAAAAAAAAAAAAAAAAAAAAAAAAAAAAAAAAAAAAAAAAAAAAAAAAAAAAAAAAAAAAAAAAAAAAAAAAAAAAAAAAAAAAAAAAAAAAAAAAAAAAAAAAAAAAAAAAAAAAAAAAAAAAAAAAAAAAAAAAAAAAAAAAAAAAAAAAAAAAAAAAAAAAAAAAAAAAAAAAAAAAAAAAAAAAAAAAAAAAAAAAAAAAAAAAAAAAAAAAAAAAAAAAAAAAAAAAAAAAAAAAAAAAAAAAAAAAAAAAAAAAAAAAAAAAAAAAAAAAAAAAAAAAAAAAAAAAAAAAAAAAAAAAAAAAAAAAAAAAAAAAAAAAAAAAAAAAAAAAAAAAAAAAAAAAAAAAAAAAAAAAAAAAAAAAAAAAAAAAAAAAAAAAAAAAAAAAAAAAAAAAAAAAAAAAAAAAAAAAAAAAAAAAAAAAAAAAAAAAAAAAAAAAAAAAAAAAAAAAAAAAAAAAAAAAAAAAAAAAAAAAAAAAAAAAAAAAAAAAAAAAAAAAAAAAAAAAAAAAAAAAAAAAAAAAAAAAAAAAAAAAAAAAAAAAAAAAAAAAAAAAAAAAAAAAAAAAAAAAAAAAAAAAAAAAAAAAAAAAAAAAAAAAAAAAAAAAAAAAAAAAAAAAAAAAAAAAAAAAAAAAAAAAAAAAAAAAAAAAAAAAAAAAAAAAAAAAAAAAAAAAAAAAAAAAAAAAAAAAAAAAAAAAAAAAAAAAAAAAAAAAAAAAAAAAAAAAAAAAAAAAAAAAAAAAAAAAAAAAAAAAAAAAAAAAAAAAAAAAAAAAAAAAAAAAAAAAAAAAAAAAAAAAAAAAAAAAAAAAAAAAAAAAAAAAAAAAAAAAAAAAAAAAAAAAAAAAAAAAAAAAAAAAAAAAAAAAAAAAAAAAAAAAAAAAAAAAAAAAAAAAAAAAAAAAAAAAAAAAAAAAAAAAAAAAAAAAAAAAAAAAAAAAAAAAAAAAAAAAAAAAAAAAAAAAAAAAAAAAAAAAAAAAAAAAAAAAAAAAAAAAAAAAAAAAAAAAAAAAAAAAAAAAAAAAAAAAAAAAAAAAAAAAAAAAAAAAAAAAAAAAAAAAAAAAAAAAAAAAAAAAAAAAAAAAAAAAAAAAAAAAAAAAAAAAAAAAAAAAAAAAAAAAAAAAAAAAAAAAAAAAAAAAAAAAAAAAAAAAAAAAAAAAAAAAAAAAAPZYQO9aMDM1D6yHPHbXKYjLFdbC5drLnz/F95iTcgQoIghZDCkviQXKE7NhZcBrlDVbi2ST2ym6gzKxvBdjSxe8OZA=</c2pa:manifest></metadata>
<defs>
  <linearGradient id="skin" x1="0" y1="0" x2="0" y2="1"><stop offset="0" stop-color="#E9EEF4"/><stop offset="1" stop-color="#D5DDE7"/></linearGradient>
  <style>.r{fill:url(#skin);stroke:#FFFFFF;stroke-width:1.6;stroke-linejoin:round}</style>
</defs>
<g id="body">
<ellipse id="head" class="r" cx="100" cy="32" rx="19.0" ry="23"/>
<path id="neck" class="r" d="M 91.0 52.0 Q 100.0 58.0 109.0 52.0 L 110.0 70.0 Q 100.0 76.0 90.0 70.0 Z"/>
<path id="traps_left" class="r" d="M 99.0 66.0 L 91.0 68.0 Q 82.0 74.0 74.0 76.0 Q 78.0 82.0 86.0 100.0 L 99.0 128.0 Z"/>
<path id="traps_right" class="r" transform="matrix(-1 0 0 1 200 0)" d="M 99.0 66.0 L 91.0 68.0 Q 82.0 74.0 74.0 76.0 Q 78.0 82.0 86.0 100.0 L 99.0 128.0 Z"/>
<path id="rear_delt_left" class="r" d="M 74.0 74.0 Q 58.0 74.0 52.0 92.0 Q 49.0 106.0 51.0 120.0 L 66.0 118.0 Q 68.0 100.0 78.0 88.0 Z"/>
<path id="rear_delt_right" class="r" transform="matrix(-1 0 0 1 200 0)" d="M 74.0 74.0 Q 58.0 74.0 52.0 92.0 Q 49.0 106.0 51.0 120.0 L 66.0 118.0 Q 68.0 100.0 78.0 88.0 Z"/>
<path id="lats_left" class="r" d="M 76.0 94.0 L 88.0 106.0 L 99.0 136.0 L 99.0 172.0 L 85.0 170.0 Q 72.0 140.0 76.0 94.0 Z"/>
<path id="lats_right" class="r" transform="matrix(-1 0 0 1 200 0)" d="M 76.0 94.0 L 88.0 106.0 L 99.0 136.0 L 99.0 172.0 L 85.0 170.0 Q 72.0 140.0 76.0 94.0 Z"/>
<path id="lower_back_left" class="r" d="M 85.0 175.0 L 99.0 176.0 L 99.0 210.0 Q 90.0 214.0 82.0 208.0 Q 80.0 190.0 85.0 175.0 Z"/>
<path id="lower_back_right" class="r" transform="matrix(-1 0 0 1 200 0)" d="M 85.0 175.0 L 99.0 176.0 L 99.0 210.0 Q 90.0 214.0 82.0 208.0 Q 80.0 190.0 85.0 175.0 Z"/>
<path id="triceps_left" class="r" d="M 52.0 122.0 L 67.0 120.0 Q 67.0 140.0 63.0 160.0 L 49.0 160.0 Q 49.0 140.0 52.0 122.0 Z"/>
<path id="triceps_right" class="r" transform="matrix(-1 0 0 1 200 0)" d="M 52.0 122.0 L 67.0 120.0 Q 67.0 140.0 63.0 160.0 L 49.0 160.0 Q 49.0 140.0 52.0 122.0 Z"/>
<path id="forearm_left" class="r" d="M 49.0 163.0 L 63.0 163.0 Q 60.0 190.0 57.0 214.0 L 44.0 214.0 Q 45.0 190.0 49.0 163.0 Z"/>
<path id="forearm_right" class="r" transform="matrix(-1 0 0 1 200 0)" d="M 49.0 163.0 L 63.0 163.0 Q 60.0 190.0 57.0 214.0 L 44.0 214.0 Q 45.0 190.0 49.0 163.0 Z"/>
<path id="hand_left" class="r" d="M 43.0 217.0 L 57.0 217.0 Q 58.0 236.0 55.0 246.0 Q 50.0 250.0 45.0 246.0 Q 41.0 232.0 43.0 217.0 Z"/>
<path id="hand_right" class="r" transform="matrix(-1 0 0 1 200 0)" d="M 43.0 217.0 L 57.0 217.0 Q 58.0 236.0 55.0 246.0 Q 50.0 250.0 45.0 246.0 Q 41.0 232.0 43.0 217.0 Z"/>
<path id="glutes_left" class="r" d="M 76.0 214.0 Q 88.0 216.0 99.0 213.0 L 99.0 250.0 Q 86.0 262.0 76.0 252.0 Q 70.0 232.0 76.0 214.0 Z"/>
<path id="glutes_right" class="r" transform="matrix(-1 0 0 1 200 0)" d="M 76.0 214.0 Q 88.0 216.0 99.0 213.0 L 99.0 250.0 Q 86.0 262.0 76.0 252.0 Q 70.0 232.0 76.0 214.0 Z"/>
<path id="hamstrings_left" class="r" d="M 76.0 256.0 Q 88.0 262.0 98.0 254.0 L 96.0 312.0 Q 95.0 324.0 92.0 332.0 L 78.0 332.0 Q 72.0 300.0 73.0 280.0 Q 73.0 266.0 76.0 256.0 Z"/>
<path id="hamstrings_right" class="r" transform="matrix(-1 0 0 1 200 0)" d="M 76.0 256.0 Q 88.0 262.0 98.0 254.0 L 96.0 312.0 Q 95.0 324.0 92.0 332.0 L 78.0 332.0 Q 72.0 300.0 73.0 280.0 Q 73.0 266.0 76.0 256.0 Z"/>
<path id="calves_left" class="r" d="M 78.0 336.0 L 93.0 336.0 Q 97.0 360.0 92.0 390.0 Q 90.0 404.0 88.0 419.0 L 82.0 419.0 Q 78.0 404.0 76.0 388.0 Q 74.0 358.0 78.0 336.0 Z"/>
<path id="calves_right" class="r" transform="matrix(-1 0 0 1 200 0)" d="M 78.0 336.0 L 93.0 336.0 Q 97.0 360.0 92.0 390.0 Q 90.0 404.0 88.0 419.0 L 82.0 419.0 Q 78.0 404.0 76.0 388.0 Q 74.0 358.0 78.0 336.0 Z"/>
<path id="heel_left" class="r" d="M 80.0 424.0 L 90.0 424.0 Q 93.0 434.0 93.0 444.0 Q 86.0 450.0 78.0 447.0 Q 77.0 434.0 80.0 424.0 Z"/>
<path id="heel_right" class="r" transform="matrix(-1 0 0 1 200 0)" d="M 80.0 424.0 L 90.0 424.0 Q 93.0 434.0 93.0 444.0 Q 86.0 450.0 78.0 447.0 Q 77.0 434.0 80.0 424.0 Z"/>
</g></svg>